<?xml version="1.0" encoding="utf-8"?>
<!-- Svg Vector Icons : http://www.onlinewebfonts.com/icon -->
<!DOCTYPE svg PUBLIC "-//W3C//DTD SVG 1.1//EN" "http://www.w3.org/Graphics/SVG/1.1/DTD/svg11.dtd">
<svg version="1.1" xmlns="http://www.w3.org/2000/svg" xmlns:xlink="http://www.w3.org/1999/xlink" x="0px" y="0px" viewBox="0 0 1000 1000" enable-background="new 0 0 1000 1000" xml:space="preserve">
<metadata> Svg Vector Icons : http://www.onlinewebfonts.com/icon </metadata>
<g><path d="M321.8,277.3v534.6h89.1V277.3H321.8z M945.4,99.1H682.6l-49.2-49.2C631,27.4,612.1,10,589.1,10H410.9c-23,0-42,17.4-44.3,39.9l-49.2,49.2H54.6C29.9,99.1,10,119,10,143.7c0,24.6,19.9,44.6,44.6,44.6h265c13.3,7.3,26.4,8.3,33.5,1.3l90.4-90.4h113.2l90.4,90.4c7.1,7.1,20.2,6.1,33.5-1.3h265c24.6,0,44.6-20,44.6-44.6C990,119,970.1,99.1,945.4,99.1z M811.8,900.9H188.2V277.3H99.1v623.7c0,49.2,39.9,89.1,89.1,89.1h623.6c49.2,0,89.1-39.9,89.1-89.1V277.3h-89.1L811.8,900.9L811.8,900.9z M589.1,277.3v534.6h89.1V277.3H589.1z"/></g>
</svg>